<svg width="878" height="715" viewBox="0 0 878 715" fill="none" xmlns="http://www.w3.org/2000/svg">
<path d="M395.219 177.828C427.39 148.267 472.67 147.122 508.845 165.794C545.751 184.844 573.482 224.64 568.735 276.43C566.394 336.732 518.404 407.309 441.64 407.309C412.506 407.309 389.412 400.13 371.44 388.403C353.566 376.738 341.846 361.288 334.213 346.346C326.622 331.485 322.918 316.842 321.083 306.067C320.158 300.636 319.688 296.068 319.448 292.783C319.356 291.517 319.298 290.435 319.261 289.563H319.196V287.062L319.198 284.972L319.315 284.951C320.363 275.666 328.243 268.45 337.808 268.45C348.07 268.451 356.394 276.758 356.419 287.015V287.047L356.433 287.57C356.45 288.09 356.49 288.941 356.572 290.074C356.738 292.348 357.079 295.721 357.776 299.819C359.186 308.1 361.973 318.866 367.36 329.413C372.706 339.879 380.454 349.838 391.782 357.231C403.014 364.56 418.858 370.086 441.64 370.086C492.94 370.086 529.982 321.124 531.559 274.57L531.575 274.072L531.578 273.994L531.585 273.918L531.633 273.422L531.711 272.569C534.838 236.533 516.091 210.996 491.865 198.917C467.307 186.673 437.495 188.392 418.955 206.612L418.397 207.159L418.312 207.244L418.217 207.321L417.609 207.812C416.935 208.357 416.133 209.257 414.008 211.756C413.233 212.667 411.843 214.309 410.327 215.761C409.53 216.524 408.323 217.604 406.776 218.639C405.31 219.62 402.703 221.129 399.162 221.837C393.667 222.936 389.253 221.416 387.121 220.486C384.83 219.485 383.085 218.246 382.047 217.447C379.975 215.851 378.179 214 377.073 212.83C373.875 209.449 373.124 208.397 371.663 207.058L370.916 206.374L370.8 206.268L370.698 206.148L370.043 205.375C366.434 201.12 358.807 196.536 348.219 193.577C337.846 190.679 327.478 190.149 320.537 191.427C307.899 193.755 298.002 199.448 290.46 207.882C282.889 216.347 277.59 227.69 274.394 241.434C267.876 269.455 271.18 304.532 281.335 334.551C302.66 397.586 352.536 446.944 423.054 451.999C525.026 459.31 602.126 380.144 606.989 276.675C607.472 266.408 616.186 258.476 626.453 258.958C636.72 259.441 644.652 268.155 644.17 278.422C638.489 399.289 546.556 498.171 420.392 489.126C331.567 482.758 271.024 420.222 246.076 346.48C234.241 311.495 229.71 269.242 238.139 233.001C246.705 196.171 269.709 162.94 313.795 154.821C327.503 152.296 343.714 153.671 358.235 157.729C371.132 161.332 385.054 167.718 395.219 177.828ZM395.365 2.50122C434.982 2.50122 466.991 35.4156 466.991 75.884C466.991 116.353 434.982 149.268 395.365 149.268C355.749 149.268 323.74 116.353 323.74 75.884C323.74 35.4157 355.749 2.50138 395.365 2.50122ZM395.365 41.4807C377.449 41.4809 362.72 56.7674 362.72 75.884C362.72 95.0009 377.449 110.288 395.365 110.288C413.282 110.288 428.012 95.001 428.012 75.884C428.011 56.7673 413.281 41.4807 395.365 41.4807Z" fill="white" stroke="white" stroke-width="5.00316"/>
<path d="M462.877 217.457C488.871 217.457 509.788 239.202 509.788 265.831C509.787 292.459 488.871 314.205 462.877 314.205C436.884 314.204 415.968 292.459 415.968 265.831C415.968 239.202 436.884 217.457 462.877 217.457ZM462.877 244.945C452.209 244.945 443.292 254.144 443.292 265.831C443.292 277.517 452.209 286.715 462.877 286.715C473.546 286.715 482.463 277.517 482.463 265.831C482.463 254.144 473.546 244.945 462.877 244.945Z" fill="#BEDA84" stroke="#BEDA84" stroke-width="5.65703"/>
<path d="M689.57 597.846C701.528 585.889 715.903 579.91 732.695 579.91C749.486 579.91 763.798 585.889 775.628 597.846C787.586 609.677 793.565 623.988 793.565 640.78C793.565 643.96 793.247 647.331 792.611 650.893H693.386C695.676 659.798 700.447 667.113 707.698 672.837C714.949 678.434 723.281 681.233 732.695 681.233C744.525 681.233 754.384 676.971 762.271 668.448H786.886C781.798 678.498 774.356 686.576 764.561 692.682C754.893 698.661 744.271 701.65 732.695 701.65C715.903 701.65 701.528 695.735 689.57 683.904C677.74 671.947 671.824 657.572 671.824 640.78C671.824 623.988 677.74 609.677 689.57 597.846ZM693.386 630.667H772.003C769.84 621.762 765.07 614.447 757.691 608.723C750.44 602.998 742.108 600.136 732.695 600.136C723.281 600.136 714.885 602.998 707.507 608.723C700.256 614.447 695.549 621.762 693.386 630.667Z" fill="white" stroke="white" stroke-width="8.48071"/>
<path d="M610.3 661.006V600.708H595.225V580.481H610.3V546.135L630.717 555.73V580.481H646.555V600.708H630.717V661.006C630.717 666.603 632.689 671.437 636.632 675.508C640.576 679.451 645.346 681.423 650.943 681.423H657.431V701.65H650.943C639.749 701.65 630.144 697.706 622.13 689.819C614.243 681.805 610.3 672.2 610.3 661.006Z" fill="white" stroke="white" stroke-width="8.48071"/>
<path d="M486.189 701.65V627.232C486.189 614.257 490.832 603.126 500.119 593.839C509.405 584.553 520.536 579.91 533.511 579.91C546.614 579.91 557.745 584.553 566.904 593.839C576.191 602.998 580.834 614.129 580.834 627.232V701.65H560.607V627.232C560.607 619.854 557.936 613.493 552.593 608.15C547.25 602.808 540.89 600.136 533.511 600.136C526.133 600.136 519.773 602.808 514.43 608.15C509.087 613.493 506.415 619.854 506.415 627.232V692.055L486.189 701.65Z" fill="white" stroke="white" stroke-width="8.48071"/>
<path d="M367.797 597.846C379.754 585.889 394.129 579.91 410.921 579.91C427.713 579.91 442.024 585.889 453.855 597.846C465.813 609.677 471.791 623.988 471.791 640.78C471.791 643.96 471.473 647.331 470.837 650.893H371.613C373.903 659.798 378.673 667.113 385.924 672.837C393.175 678.434 401.508 681.233 410.921 681.233C422.752 681.233 432.611 676.971 440.498 668.448H465.113C460.024 678.498 452.583 686.576 442.787 692.682C433.119 698.661 422.497 701.65 410.921 701.65C394.129 701.65 379.754 695.735 367.797 683.904C355.966 671.947 350.051 657.572 350.051 640.78C350.051 623.988 355.966 609.677 367.797 597.846ZM371.613 630.667H450.229C448.067 621.762 443.296 614.447 435.918 608.723C428.667 602.998 420.335 600.136 410.921 600.136C401.508 600.136 393.112 602.998 385.733 608.723C378.482 614.447 373.776 621.762 371.613 630.667Z" fill="white" stroke="white" stroke-width="8.48071"/>
<path d="M279.749 579.91C291.071 579.91 301.502 582.836 311.043 588.687C320.711 594.412 328.153 602.044 333.368 611.585H308.18C300.293 603.952 290.816 600.136 279.749 600.136C268.554 600.136 259.014 604.143 251.126 612.158C243.239 620.045 239.296 629.585 239.296 640.78C239.296 651.975 243.239 661.515 251.126 669.402C259.014 677.289 268.554 681.233 279.749 681.233C286.364 681.233 292.534 679.77 298.258 676.844C303.982 673.918 308.689 669.911 312.378 664.823H335.658C330.951 675.763 323.509 684.668 313.332 691.537C303.283 698.279 292.088 701.65 279.749 701.65C262.957 701.65 248.646 695.735 236.815 683.904C224.985 671.947 219.069 657.572 219.069 640.78C219.069 623.988 224.985 609.677 236.815 597.846C248.646 585.889 262.957 579.91 279.749 579.91Z" fill="white" stroke="white" stroke-width="8.48071"/>
<path d="M100.682 597.846C112.64 585.889 127.015 579.91 143.806 579.91C160.598 579.91 174.909 585.889 186.74 597.846C198.698 609.677 204.677 623.988 204.677 640.78C204.677 643.96 204.359 647.331 203.723 650.893H104.498C106.788 659.798 111.558 667.113 118.809 672.837C126.06 678.434 134.393 681.233 143.806 681.233C155.637 681.233 165.496 676.971 173.383 668.448H197.998C192.91 678.498 185.468 686.576 175.673 692.682C166.005 698.661 155.383 701.65 143.806 701.65C127.015 701.65 112.64 695.735 100.682 683.904C88.8513 671.947 82.936 657.572 82.936 640.78C82.936 623.988 88.8513 609.677 100.682 597.846ZM104.498 630.667H183.114C180.952 621.762 176.181 614.447 168.803 608.723C161.552 602.998 153.22 600.136 143.806 600.136C134.393 600.136 125.997 602.998 118.619 608.723C111.368 614.447 106.661 621.762 104.498 630.667Z" fill="white" stroke="white" stroke-width="8.48071"/>
<path d="M12.6597 640.78C12.6597 623.988 18.575 609.677 30.4056 597.846C42.2362 585.889 56.5474 579.91 73.3392 579.91V600.136C62.1446 600.136 52.6038 604.143 44.7168 612.158C36.8297 620.045 32.8862 629.585 32.8862 640.78V692.055L12.6597 701.65V640.78Z" fill="white" stroke="white" stroke-width="8.48071"/>
<path d="M807.958 640.78C807.958 623.988 813.873 609.677 825.703 597.846C837.534 585.889 851.845 579.91 868.637 579.91V600.136C857.442 600.136 847.902 604.143 840.015 612.158C832.128 620.045 828.184 629.585 828.184 640.78V692.055L807.958 701.65V640.78Z" fill="white" stroke="white" stroke-width="8.48071"/>
</svg>
