<svg width="1771" height="411" viewBox="0 0 1771 411" fill="none" xmlns="http://www.w3.org/2000/svg">
<path d="M138.522 157.086C163.096 135.03 197.349 134.329 224.69 148.442C252.834 162.969 273.993 193.327 270.39 232.808C268.605 278.658 232.116 332.468 173.542 332.468C151.396 332.468 133.786 327.01 120.055 318.049C106.402 309.14 97.4575 297.342 91.6401 285.954C85.8561 274.63 83.0383 263.482 81.6431 255.288C80.9396 251.156 80.5816 247.678 80.3989 245.174C80.3565 244.593 80.3241 244.063 80.2983 243.587H80.2065V238.446L80.394 238.413C81.5328 231.281 87.7121 225.831 95.1646 225.831C103.403 225.831 110.086 232.491 110.123 240.721L110.124 240.754V240.763L110.133 241.142C110.146 241.524 110.175 242.154 110.237 242.998C110.36 244.689 110.614 247.206 111.135 250.266C112.189 256.457 114.27 264.489 118.283 272.345C122.262 280.136 128.013 287.519 136.405 292.995C144.718 298.42 156.501 302.551 173.542 302.551C211.644 302.551 239.33 266.124 240.508 231.329L240.521 230.954L240.524 230.867L240.533 230.782L240.568 230.407C243.171 203.273 229.173 184.104 211.049 175.068C193.052 166.095 171.397 167.256 157.704 180.09L157.057 180.71L156.636 181.125L156.54 181.219L156.434 181.305L155.975 181.675C155.548 182.02 155.007 182.619 153.377 184.535C152.796 185.218 151.719 186.492 150.536 187.625C149.913 188.222 148.959 189.075 147.732 189.896C146.569 190.674 144.489 191.88 141.657 192.447C137.253 193.327 133.72 192.108 132.025 191.368C130.201 190.571 128.818 189.589 128.003 188.961C126.38 187.711 124.983 186.269 124.143 185.38C121.659 182.754 121.182 182.056 120.106 181.07L119.542 180.553L119.413 180.434L119.298 180.3L118.804 179.717C116.243 176.698 110.681 173.307 102.779 171.099C95.0506 168.94 87.3662 168.56 82.2925 169.495C72.9441 171.216 65.6561 175.417 60.1021 181.627C54.5166 187.873 50.572 196.282 48.1831 206.553C43.3102 227.505 45.7731 253.808 53.3979 276.346C69.4064 323.665 106.794 360.601 159.578 364.385C235.963 369.861 293.798 310.582 297.449 232.906C297.837 224.654 304.84 218.279 313.092 218.667C321.344 219.054 327.72 226.059 327.333 234.311C323.024 325.97 253.268 401.096 157.439 394.226C89.9411 389.387 43.979 341.859 25.0591 285.933C16.0839 259.403 12.6342 227.333 19.0435 199.776C25.5625 171.747 43.1277 146.288 76.8735 140.073C87.3865 138.137 99.7665 139.194 110.83 142.286C120.391 144.957 130.761 149.656 138.522 157.086ZM138.613 15.7515C169.041 15.7517 193.589 41.0256 193.589 72.0542C193.589 103.083 169.041 128.358 138.613 128.358C108.184 128.358 83.6353 103.083 83.6353 72.0542C83.6353 41.0255 108.184 15.7515 138.613 15.7515ZM138.613 46.9946C125.632 46.9947 114.879 58.084 114.879 72.0542C114.879 86.0245 125.632 97.1137 138.613 97.1138C151.593 97.1135 162.345 86.0243 162.345 72.0542C162.345 58.0841 151.593 46.9949 138.613 46.9946Z" fill="#0D4C41" stroke="#0D4C41" stroke-width="5.59654"/>
<path d="M189.666 186.684C209.674 186.684 225.739 203.416 225.739 223.862C225.739 244.308 209.674 261.041 189.666 261.041C169.658 261.04 153.593 244.308 153.593 223.862C153.593 203.416 169.658 186.684 189.666 186.684ZM189.666 208.76C182.013 208.761 175.545 215.371 175.544 223.862C175.544 232.353 182.013 238.964 189.666 238.964C197.318 238.964 203.787 232.353 203.787 223.862C203.786 215.371 197.318 208.76 189.666 208.76Z" fill="#BEDA84" stroke="#BEDA84" stroke-width="5.59654"/>
<path d="M1458.46 162.484C1476.5 144.437 1498.2 135.413 1523.54 135.413C1548.89 135.413 1570.49 144.437 1588.34 162.484C1606.39 180.34 1615.41 201.939 1615.41 227.282C1615.41 232.082 1614.93 237.17 1613.97 242.545H1464.22C1467.67 255.985 1474.87 267.025 1485.82 275.664C1496.76 284.112 1509.34 288.336 1523.54 288.336C1541.4 288.336 1556.28 281.904 1568.18 269.041H1605.33C1597.65 284.208 1586.42 296.4 1571.64 305.615C1557.05 314.639 1541.01 319.151 1523.54 319.151C1498.2 319.151 1476.5 310.223 1458.46 292.368C1440.6 274.32 1431.67 252.625 1431.67 227.282C1431.67 201.939 1440.6 180.34 1458.46 162.484ZM1464.22 212.019H1582.87C1579.6 198.579 1572.41 187.539 1561.27 178.9C1550.33 170.26 1537.75 165.94 1523.54 165.94C1509.34 165.94 1496.66 170.26 1485.53 178.9C1474.58 187.539 1467.48 198.579 1464.22 212.019Z" fill="#0D4C41" stroke="#0D4C41" stroke-width="12.7996"/>
<path d="M1338.82 257.808V166.803H1316.07V136.276H1338.82V84.4375L1369.63 98.9198V136.276H1393.54V166.803H1369.63V257.808C1369.63 266.255 1372.61 273.551 1378.56 279.695C1384.51 285.647 1391.71 288.623 1400.16 288.623H1409.95V319.15H1400.16C1383.27 319.15 1368.77 313.198 1356.67 301.294C1344.77 289.199 1338.82 274.703 1338.82 257.808Z" fill="#0D4C41" stroke="#0D4C41" stroke-width="12.7996"/>
<path d="M1151.5 319.151V206.835C1151.5 187.251 1158.51 170.452 1172.52 156.436C1186.54 142.421 1203.34 135.413 1222.92 135.413C1242.7 135.413 1259.5 142.421 1273.32 156.436C1287.34 170.26 1294.34 187.059 1294.34 206.835V319.151H1263.82V206.835C1263.82 195.699 1259.79 186.099 1251.72 178.036C1243.66 169.972 1234.06 165.94 1222.92 165.94C1211.79 165.94 1202.19 169.972 1194.12 178.036C1186.06 186.099 1182.03 195.699 1182.03 206.835V304.669L1151.5 319.151Z" fill="#0D4C41" stroke="#0D4C41" stroke-width="12.7996"/>
<path d="M972.823 162.484C990.87 144.437 1012.57 135.413 1037.91 135.413C1063.25 135.413 1084.85 144.437 1102.71 162.484C1120.75 180.34 1129.78 201.939 1129.78 227.282C1129.78 232.082 1129.3 237.17 1128.34 242.545H978.582C982.038 255.985 989.238 267.025 1000.18 275.664C1011.13 284.112 1023.7 288.336 1037.91 288.336C1055.76 288.336 1070.64 281.904 1082.55 269.041H1119.7C1112.02 284.208 1100.79 296.4 1086 305.615C1071.41 314.639 1055.38 319.151 1037.91 319.151C1012.57 319.151 990.87 310.223 972.823 292.368C954.967 274.32 946.04 252.625 946.04 227.282C946.04 201.939 954.967 180.34 972.823 162.484ZM978.582 212.019H1097.23C1093.97 198.579 1086.77 187.539 1075.64 178.9C1064.69 170.26 1052.12 165.94 1037.91 165.94C1023.7 165.94 1011.03 170.26 999.894 178.9C988.95 187.539 981.846 198.579 978.582 212.019Z" fill="#0D4C41" stroke="#0D4C41" stroke-width="12.7996"/>
<path d="M839.933 135.413C857.021 135.413 872.764 139.829 887.164 148.661C901.755 157.3 912.987 168.82 920.859 183.219H882.844C870.94 171.7 856.637 165.94 839.933 165.94C823.038 165.94 808.639 171.988 796.735 184.083C784.831 195.987 778.88 210.387 778.88 227.282C778.88 244.177 784.831 258.577 796.735 270.481C808.639 282.384 823.038 288.336 839.933 288.336C849.917 288.336 859.229 286.128 867.869 281.712C876.508 277.296 883.612 271.249 889.18 263.569H924.315C917.211 280.08 905.979 293.52 890.62 303.887C875.452 314.063 858.557 319.151 839.933 319.151C814.59 319.151 792.991 310.223 775.136 292.368C757.28 274.32 748.353 252.625 748.353 227.282C748.353 201.939 757.28 180.34 775.136 162.484C792.991 144.437 814.59 135.413 839.933 135.413Z" fill="#0D4C41" stroke="#0D4C41" stroke-width="12.7996"/>
<path d="M569.675 162.484C587.722 144.437 609.417 135.413 634.761 135.413C660.104 135.413 681.703 144.437 699.558 162.484C717.606 180.34 726.629 201.939 726.629 227.282C726.629 232.082 726.149 237.17 725.189 242.545H575.435C578.89 255.985 586.09 267.025 597.034 275.664C607.977 284.112 620.553 288.336 634.761 288.336C652.616 288.336 667.495 281.904 679.399 269.041H716.55C708.87 284.208 697.638 296.4 682.855 305.615C668.263 314.639 652.232 319.151 634.761 319.151C609.417 319.151 587.722 310.223 569.675 292.368C551.819 274.32 542.892 252.625 542.892 227.282C542.892 201.939 551.819 180.34 569.675 162.484ZM575.435 212.019H694.086C690.823 198.579 683.623 187.539 672.487 178.9C661.544 170.26 648.968 165.94 634.761 165.94C620.553 165.94 607.881 170.26 596.746 178.9C585.802 187.539 578.698 198.579 575.435 212.019Z" fill="#0D4C41" stroke="#0D4C41" stroke-width="12.7996"/>
<path d="M447.721 227.118C447.721 201.775 456.649 180.176 474.504 162.321C492.36 144.273 513.959 135.25 539.302 135.25V165.776C522.407 165.776 508.007 171.824 496.104 183.92C484.2 195.823 478.248 210.223 478.248 227.118V304.505L447.721 318.987V227.118Z" fill="#0D4C41" stroke="#0D4C41" stroke-width="12.7996"/>
<path d="M1637.14 227.282C1637.14 201.939 1646.07 180.34 1663.92 162.484C1681.78 144.437 1703.38 135.413 1728.72 135.413V165.94C1711.83 165.94 1697.43 171.988 1685.52 184.083C1673.62 195.987 1667.67 210.387 1667.67 227.282V304.669L1637.14 319.151V227.282Z" fill="#0D4C41" stroke="#0D4C41" stroke-width="12.7996"/>
</svg>
